<?xml version="1.0" encoding="UTF-8" standalone="no"?>
<!DOCTYPE svg PUBLIC "-//W3C//DTD SVG 1.1//EN"
 "http://www.w3.org/Graphics/SVG/1.1/DTD/svg11.dtd">
<!-- Generated by graphviz version 2.43.0 (0)
 -->
<!-- Title: %3 Pages: 1 -->
<svg width="347pt" height="1193pt"
 viewBox="0.00 0.00 347.44 1193.44" xmlns="http://www.w3.org/2000/svg" xmlns:xlink="http://www.w3.org/1999/xlink">
<g id="graph0" class="graph" transform="scale(1 1) rotate(0) translate(4 1189.44)">
<title>%3</title>
<polygon fill="white" stroke="transparent" points="-4,4 -4,-1189.44 343.44,-1189.44 343.44,4 -4,4"/>
<!-- B -->
<g id="node1" class="node">
<title>B</title>
<polygon fill="aqua" stroke="black" points="173.67,-1148.27 134.37,-1148.27 122.22,-1185.65 110.08,-1148.27 70.78,-1148.27 102.57,-1125.17 90.43,-1087.79 122.22,-1110.89 154.02,-1087.79 141.87,-1125.17 173.67,-1148.27"/>
<text text-anchor="middle" x="122.22" y="-1133.02" font-family="Times,serif" font-size="14.00">B</text>
</g>
<!-- H -->
<g id="node2" class="node">
<title>H</title>
<polygon fill="aqua" stroke="black" points="301.67,-992.84 262.37,-992.84 250.22,-1030.22 238.08,-992.84 198.78,-992.84 230.57,-969.74 218.43,-932.36 250.22,-955.46 282.02,-932.36 269.87,-969.74 301.67,-992.84"/>
<text text-anchor="middle" x="250.22" y="-977.59" font-family="Times,serif" font-size="14.00">H</text>
</g>
<!-- B&#45;&#45;H -->
<g id="edge1" class="edge">
<title>B&#45;&#45;H</title>
<path fill="none" stroke="red" d="M146.95,-1109.62C157.97,-1097.73 170.98,-1083.36 182.22,-1070.01 203.19,-1045.09 226.11,-1014.85 239.27,-997.17"/>
<text text-anchor="middle" x="205.72" y="-1054.01" font-family="Times,serif" font-size="20.00">2</text>
</g>
<!-- G -->
<g id="node3" class="node">
<title>G</title>
<polygon fill="aqua" stroke="black" points="261.67,-837.41 222.37,-837.41 210.22,-874.79 198.08,-837.41 158.78,-837.41 190.57,-814.31 178.43,-776.93 210.22,-800.03 242.02,-776.93 229.87,-814.31 261.67,-837.41"/>
<text text-anchor="middle" x="210.22" y="-822.16" font-family="Times,serif" font-size="14.00">G</text>
</g>
<!-- B&#45;&#45;G -->
<g id="edge2" class="edge">
<title>B&#45;&#45;G</title>
<path fill="none" stroke="red" d="M130.15,-1104.99C140.53,-1065.11 159.49,-993.44 177.22,-932.58 185.4,-904.52 195.5,-872.51 202.36,-851.14"/>
<text text-anchor="middle" x="183.72" y="-976.29" font-family="Times,serif" font-size="20.00">4</text>
</g>
<!-- D -->
<g id="node4" class="node">
<title>D</title>
<polygon fill="aqua" stroke="black" points="211.67,-371.12 172.37,-371.12 160.22,-408.5 148.08,-371.12 108.78,-371.12 140.57,-348.02 128.43,-310.64 160.22,-333.75 192.02,-310.64 179.87,-348.02 211.67,-371.12"/>
<text text-anchor="middle" x="160.22" y="-355.87" font-family="Times,serif" font-size="14.00">D</text>
</g>
<!-- B&#45;&#45;D -->
<g id="edge3" class="edge">
<title>B&#45;&#45;D</title>
<path fill="none" stroke="red" d="M122.22,-1110.74C122.22,-1080.38 122.22,-1027.58 122.22,-982.29 122.22,-982.29 122.22,-982.29 122.22,-514 122.22,-465.71 140.18,-411.3 151.41,-382.01"/>
<text text-anchor="middle" x="128.72" y="-743.15" font-family="Times,serif" font-size="20.00">9</text>
</g>
<!-- C -->
<g id="node5" class="node">
<title>C</title>
<polygon fill="aqua" stroke="black" points="177.67,-215.7 138.37,-215.7 126.22,-253.07 114.08,-215.7 74.78,-215.7 106.57,-192.59 94.43,-155.21 126.22,-178.32 158.02,-155.21 145.87,-192.59 177.67,-215.7"/>
<text text-anchor="middle" x="126.22" y="-200.44" font-family="Times,serif" font-size="14.00">C</text>
</g>
<!-- B&#45;&#45;C -->
<g id="edge4" class="edge">
<title>B&#45;&#45;C</title>
<path fill="none" stroke="red" d="M106.95,-1099.86C95.3,-1069.22 81.22,-1023.65 81.22,-982.29 81.22,-982.29 81.22,-982.29 81.22,-358.57 81.22,-308.61 103.47,-253.05 116.68,-224.47"/>
<text text-anchor="middle" x="87.72" y="-665.43" font-family="Times,serif" font-size="20.00">2</text>
</g>
<!-- A -->
<g id="node6" class="node">
<title>A</title>
<polygon fill="aqua" stroke="black" points="102.67,-60.27 63.37,-60.27 51.22,-97.65 39.08,-60.27 -0.22,-60.27 31.57,-37.16 19.43,0.22 51.22,-22.89 83.02,0.22 70.87,-37.16 102.67,-60.27"/>
<text text-anchor="middle" x="51.22" y="-45.01" font-family="Times,serif" font-size="14.00">A</text>
</g>
<!-- B&#45;&#45;A -->
<g id="edge5" class="edge">
<title>B&#45;&#45;A</title>
<path fill="none" stroke="red" d="M98.22,-1111.78C72.47,-1083.44 35.22,-1033.58 35.22,-982.29 35.22,-982.29 35.22,-982.29 35.22,-203.14 35.22,-160.83 41.32,-112.3 45.98,-81.35"/>
<text text-anchor="middle" x="41.72" y="-587.72" font-family="Times,serif" font-size="20.00">1</text>
</g>
<!-- H&#45;&#45;G -->
<g id="edge6" class="edge">
<title>H&#45;&#45;G</title>
<path fill="none" stroke="red" d="M242.22,-949.61C234.88,-921.45 224.12,-880.16 217.14,-853.4"/>
<text text-anchor="middle" x="245.22" y="-898.58" font-family="Times,serif" font-size="20.00">14</text>
</g>
<!-- F -->
<g id="node7" class="node">
<title>F</title>
<polygon fill="aqua" stroke="black" points="290.67,-681.98 251.37,-681.98 239.22,-719.36 227.08,-681.98 187.78,-681.98 219.57,-658.88 207.43,-621.5 239.22,-644.6 271.02,-621.5 258.87,-658.88 290.67,-681.98"/>
<text text-anchor="middle" x="239.22" y="-666.73" font-family="Times,serif" font-size="14.00">F</text>
</g>
<!-- G&#45;&#45;F -->
<g id="edge7" class="edge">
<title>G&#45;&#45;F</title>
<path fill="none" stroke="red" d="M215.68,-796C220.76,-769.09 228.32,-729.1 233.49,-701.74"/>
<text text-anchor="middle" x="232.72" y="-743.15" font-family="Times,serif" font-size="20.00">6</text>
</g>
<!-- D&#45;&#45;G -->
<g id="edge14" class="edge">
<title>D&#45;&#45;G</title>
<path fill="none" stroke="red" d="M159.27,-405.66C158.59,-473.99 160.18,-607.61 179.22,-719.15 183.41,-743.66 191.33,-770.54 198.13,-791.06"/>
<text text-anchor="middle" x="171.72" y="-587.72" font-family="Times,serif" font-size="20.00">1</text>
</g>
<!-- D&#45;&#45;C -->
<g id="edge13" class="edge">
<title>D&#45;&#45;C</title>
<path fill="none" stroke="red" d="M153.67,-328.99C147.57,-301.47 138.54,-260.75 132.53,-233.6"/>
<text text-anchor="middle" x="151.72" y="-276.86" font-family="Times,serif" font-size="20.00">1</text>
</g>
<!-- C&#45;&#45;A -->
<g id="edge12" class="edge">
<title>C&#45;&#45;A</title>
<path fill="none" stroke="red" d="M107.3,-164.43C92.37,-133.89 72.19,-92.6 60.55,-68.8"/>
<text text-anchor="middle" x="99.72" y="-121.43" font-family="Times,serif" font-size="20.00">4</text>
</g>
<!-- F&#45;&#45;D -->
<g id="edge8" class="edge">
<title>F&#45;&#45;D</title>
<path fill="none" stroke="red" d="M231.43,-638.97C216.02,-578.71 181.85,-445.12 167.16,-387.69"/>
<text text-anchor="middle" x="217.72" y="-510" font-family="Times,serif" font-size="20.00">3</text>
</g>
<!-- E -->
<g id="node8" class="node">
<title>E</title>
<polygon fill="aqua" stroke="black" points="339.67,-526.55 300.37,-526.55 288.22,-563.93 276.08,-526.55 236.78,-526.55 268.57,-503.45 256.43,-466.07 288.22,-489.17 320.02,-466.07 307.87,-503.45 339.67,-526.55"/>
<text text-anchor="middle" x="288.22" y="-511.3" font-family="Times,serif" font-size="14.00">E</text>
</g>
<!-- F&#45;&#45;E -->
<g id="edge9" class="edge">
<title>F&#45;&#45;E</title>
<path fill="none" stroke="red" d="M249.61,-636.89C258.83,-608.04 272.08,-566.54 280.42,-540.44"/>
<text text-anchor="middle" x="272.72" y="-587.72" font-family="Times,serif" font-size="20.00">1</text>
</g>
<!-- E&#45;&#45;D -->
<g id="edge10" class="edge">
<title>E&#45;&#45;D</title>
<path fill="none" stroke="red" d="M259.42,-475.48C247.56,-459.97 233.5,-442.06 220.22,-426.29 204.1,-407.14 184.36,-385.91 172.03,-372.9"/>
<text text-anchor="middle" x="243.72" y="-432.29" font-family="Times,serif" font-size="20.00">1</text>
</g>
<!-- E&#45;&#45;C -->
<g id="edge11" class="edge">
<title>E&#45;&#45;C</title>
<path fill="none" stroke="red" d="M282.37,-484.87C273.31,-443.98 253.4,-368.15 220.22,-310.86 197.33,-271.33 158.08,-233.43 138.33,-215.67"/>
<text text-anchor="middle" x="266.72" y="-354.57" font-family="Times,serif" font-size="20.00">3</text>
</g>
</g>
</svg>
